<mxfile host="Electron" agent="Mozilla/5.0 (Macintosh; Intel Mac OS X 10_15_7) AppleWebKit/537.36 (KHTML, like Gecko) draw.io/24.7.17 Chrome/128.0.6613.36 Electron/32.0.1 Safari/537.36" version="24.7.17">
  <diagram name="Page-1" id="Ncc8Ttj6XNavPWrkjmIB">
    <mxGraphModel dx="1050" dy="787" grid="1" gridSize="10" guides="1" tooltips="1" connect="1" arrows="1" fold="1" page="1" pageScale="1" pageWidth="827" pageHeight="1169" math="0" shadow="0">
      <root>
        <mxCell id="0" />
        <mxCell id="1" parent="0" />
        <mxCell id="O4wa3DMivLdUA-dt5oWF-1" value="START" style="ellipse;whiteSpace=wrap;html=1;" vertex="1" parent="1">
          <mxGeometry x="355" y="30" width="120" height="80" as="geometry" />
        </mxCell>
        <mxCell id="O4wa3DMivLdUA-dt5oWF-2" style="edgeStyle=orthogonalEdgeStyle;rounded=0;orthogonalLoop=1;jettySize=auto;html=1;entryX=0.5;entryY=0;entryDx=0;entryDy=0;" edge="1" parent="1" source="O4wa3DMivLdUA-dt5oWF-3" target="O4wa3DMivLdUA-dt5oWF-6">
          <mxGeometry relative="1" as="geometry" />
        </mxCell>
        <mxCell id="O4wa3DMivLdUA-dt5oWF-3" value="Data Collection" style="shape=cylinder3;whiteSpace=wrap;html=1;boundedLbl=1;backgroundOutline=1;size=15;" vertex="1" parent="1">
          <mxGeometry x="265" y="180" width="300" height="80" as="geometry" />
        </mxCell>
        <mxCell id="O4wa3DMivLdUA-dt5oWF-4" style="edgeStyle=orthogonalEdgeStyle;rounded=0;orthogonalLoop=1;jettySize=auto;html=1;entryX=0.5;entryY=0;entryDx=0;entryDy=0;" edge="1" parent="1" source="O4wa3DMivLdUA-dt5oWF-6" target="O4wa3DMivLdUA-dt5oWF-8">
          <mxGeometry relative="1" as="geometry" />
        </mxCell>
        <mxCell id="O4wa3DMivLdUA-dt5oWF-5" style="edgeStyle=orthogonalEdgeStyle;rounded=0;orthogonalLoop=1;jettySize=auto;html=1;" edge="1" parent="1" source="O4wa3DMivLdUA-dt5oWF-6" target="O4wa3DMivLdUA-dt5oWF-9">
          <mxGeometry relative="1" as="geometry" />
        </mxCell>
        <mxCell id="O4wa3DMivLdUA-dt5oWF-6" value="Data Processing" style="rounded=0;whiteSpace=wrap;html=1;" vertex="1" parent="1">
          <mxGeometry x="285" y="320" width="260" height="60" as="geometry" />
        </mxCell>
        <mxCell id="O4wa3DMivLdUA-dt5oWF-7" style="edgeStyle=orthogonalEdgeStyle;rounded=0;orthogonalLoop=1;jettySize=auto;html=1;" edge="1" parent="1" source="O4wa3DMivLdUA-dt5oWF-8" target="O4wa3DMivLdUA-dt5oWF-11">
          <mxGeometry relative="1" as="geometry" />
        </mxCell>
        <mxCell id="O4wa3DMivLdUA-dt5oWF-8" value="Training Set" style="rounded=0;whiteSpace=wrap;html=1;" vertex="1" parent="1">
          <mxGeometry x="520" y="470" width="120" height="60" as="geometry" />
        </mxCell>
        <mxCell id="O4wa3DMivLdUA-dt5oWF-9" value="Testing Set" style="rounded=0;whiteSpace=wrap;html=1;" vertex="1" parent="1">
          <mxGeometry x="210" y="470" width="120" height="60" as="geometry" />
        </mxCell>
        <mxCell id="O4wa3DMivLdUA-dt5oWF-10" style="edgeStyle=orthogonalEdgeStyle;rounded=0;orthogonalLoop=1;jettySize=auto;html=1;entryX=1;entryY=0.5;entryDx=0;entryDy=0;" edge="1" parent="1" source="O4wa3DMivLdUA-dt5oWF-11" target="O4wa3DMivLdUA-dt5oWF-14">
          <mxGeometry relative="1" as="geometry" />
        </mxCell>
        <mxCell id="O4wa3DMivLdUA-dt5oWF-11" value="KNN" style="rounded=0;whiteSpace=wrap;html=1;" vertex="1" parent="1">
          <mxGeometry x="520" y="600" width="120" height="60" as="geometry" />
        </mxCell>
        <mxCell id="O4wa3DMivLdUA-dt5oWF-12" style="edgeStyle=orthogonalEdgeStyle;rounded=0;orthogonalLoop=1;jettySize=auto;html=1;entryX=0.5;entryY=0;entryDx=0;entryDy=0;entryPerimeter=0;" edge="1" parent="1" source="O4wa3DMivLdUA-dt5oWF-1" target="O4wa3DMivLdUA-dt5oWF-3">
          <mxGeometry relative="1" as="geometry" />
        </mxCell>
        <mxCell id="O4wa3DMivLdUA-dt5oWF-13" style="edgeStyle=orthogonalEdgeStyle;rounded=0;orthogonalLoop=1;jettySize=auto;html=1;entryX=0.5;entryY=0;entryDx=0;entryDy=0;" edge="1" parent="1" source="O4wa3DMivLdUA-dt5oWF-14" target="O4wa3DMivLdUA-dt5oWF-17">
          <mxGeometry relative="1" as="geometry" />
        </mxCell>
        <mxCell id="O4wa3DMivLdUA-dt5oWF-14" value="Model" style="rounded=0;whiteSpace=wrap;html=1;" vertex="1" parent="1">
          <mxGeometry x="350" y="600" width="120" height="60" as="geometry" />
        </mxCell>
        <mxCell id="O4wa3DMivLdUA-dt5oWF-15" style="edgeStyle=orthogonalEdgeStyle;rounded=0;orthogonalLoop=1;jettySize=auto;html=1;entryX=0.45;entryY=-0.033;entryDx=0;entryDy=0;entryPerimeter=0;" edge="1" parent="1" source="O4wa3DMivLdUA-dt5oWF-9" target="O4wa3DMivLdUA-dt5oWF-14">
          <mxGeometry relative="1" as="geometry" />
        </mxCell>
        <mxCell id="O4wa3DMivLdUA-dt5oWF-16" style="edgeStyle=orthogonalEdgeStyle;rounded=0;orthogonalLoop=1;jettySize=auto;html=1;entryX=0.5;entryY=0;entryDx=0;entryDy=0;" edge="1" parent="1" source="O4wa3DMivLdUA-dt5oWF-17" target="O4wa3DMivLdUA-dt5oWF-18">
          <mxGeometry relative="1" as="geometry" />
        </mxCell>
        <mxCell id="O4wa3DMivLdUA-dt5oWF-17" value="Prediction" style="rounded=0;whiteSpace=wrap;html=1;" vertex="1" parent="1">
          <mxGeometry x="350" y="700" width="120" height="60" as="geometry" />
        </mxCell>
        <mxCell id="O4wa3DMivLdUA-dt5oWF-18" value="STOP" style="ellipse;whiteSpace=wrap;html=1;" vertex="1" parent="1">
          <mxGeometry x="350" y="820" width="120" height="80" as="geometry" />
        </mxCell>
      </root>
    </mxGraphModel>
  </diagram>
</mxfile>
